<svg fill="none" height="220" viewBox="0 0 220 220" width="220" xmlns="http://www.w3.org/2000/svg"><path d="m106.864 105.742v-4.911h.108c6.261 0 10.695-3.135 13.396-6.5085 1.356-1.6453 2.235-3.2493 2.809-4.8015.725-1.9558.958-3.8184 1.035-5.5672h-17.219v-4.8429h17.064c0-.0052 0-.0052 0-.0052h.005c-.434-3.2803-1.692-6.5503-3.725-9.008-3.912-4.8532-9.443-5.6604-13.09-5.6604l-9.7431-.0052v.0052 88.1187h9.4841v-.005h.005v-32.886h12.382v32.85h.005 10.731.005v-15.31c-.016-20.35-6.525-31.463-23.252-31.463z" fill="#fff"/><path d="m84.0832 59.5221h20.8408c.197 0 .342.0052.502.0104h5.055c9.981 0 14.162 1.7591 18.885 5.4016 6.877 5.3914 7.958 13.2145 7.958 17.1313 0 4.8532-1.485 9.9807-5.127 14.1665-1.904 2.2817-4.812 5.2881-9.583 7.2541 15.134 5.345 20.96 17.493 20.96 35.566v18.885h-59.4908zm25.9168-59.5221c-60.7535 0-110 49.2465-110 110 0 60.754 49.2465 110 110 110 60.754 0 110-49.246 110-110 0-60.7535-49.246-110-110-110z" fill="#fff"/><g fill="#0f2d69"><path d="m130.101 152.515h-.005-10.731-.005v-32.85h-12.382v32.886h-.005v.005h-9.4838v-88.1189h.0052v-.0052l9.7426.0052c3.648 0 9.179.8072 13.09 5.6656 2.034 2.4628 3.286 5.7276 3.726 9.008h-.005v.0052h-17.064v4.8428h17.219c-.073 1.7489-.311 3.6115-1.035 5.5621-.574 1.5471-1.454 3.1562-2.81 4.8015-2.7 3.3735-7.135 6.5037-13.395 6.5037h-.109v4.91c16.728 0 23.237 11.114 23.237 31.464v15.315zm13.468-13.468c0-18.073-5.826-30.222-20.96-35.567 4.771-1.966 7.673-4.9719 9.582-7.2536 3.643-4.1806 5.128-9.3081 5.128-14.1665 0-3.9168-1.081-11.7399-7.958-17.1313-4.724-3.6425-8.904-5.4016-18.885-5.4016h-5.055c-.155-.0104-.305-.0104-.502-.0104h-20.8409v98.4104h59.4859v-18.88z"/><path clip-rule="evenodd" d="m95.6363 27.4018 1.04 5.5155-2.9596.5588-1.0399-5.5155-7.8904-10.1049 3.3165-.626 5.4379 7.1815 2.4422-8.6665 3.3165-.626zm-21.6363-2.5868 4.7808-2.1058-1.1279-2.556-12.3143 5.4276 1.128 2.5559 4.7808-2.1058 5.7277 13.0075 2.7577-1.2159zm-8.734 20.9443-9.4426-14.1458 2.5043-1.6713 9.4426 14.1459zm-10.6121 5.743c-1.1124 1.0504-2.6387 1.5212-4.6463 1.4487l.1294 2.5767c2.6802.1138 4.6049-.5019 6.3175-2.1213 2.8975-2.7371 2.7681-6.0226.8641-8.0353-2.5822-2.7334-5.2187-1.3543-7.4706-.1764-1.6784.8778-3.143 1.6439-4.2124.5127-.9469-1.0038-.7399-2.3076.4605-3.4407 1.2366-1.1694 2.4628-1.3556 4.4548-1.3349l-.1811-2.6336c-2.4939.0517-4.1702.3984-5.9915 2.1162-2.5249 2.3852-2.6595 5.324-.7916 7.3005 2.6511 2.8065 5.2901 1.3969 7.5191.2062 1.6296-.8705 3.0401-1.6239 4.0759-.527.9882 1.04.921 2.7423-.5278 4.1082zm-23.5723 5.133c1.754-2.5974 5.2154-3.3373 7.8335-1.5677 2.0127 1.3607 2.7732 3.8391 2.0178 6.0846.4422-.331 1.2414-.3561 2.1032-.3832 1.226-.0385 2.5786-.081 3.2106-1.0138.1345-.2017.2535-.4139.3208-.6933l2.3335 1.5781c-.1915.5433-.4192 1.0089-.6727 1.3918-1.4616 2.1657-4.2114 1.8986-6.2451 1.701-1.105-.1074-1.9986-.1942-2.3593.141l-.7761 1.1486 4.8739 3.2907-1.6867 2.4991-14.0941-9.5254zm5.4482 6.8142 1.2935-1.9144c.8848-1.309.7658-3.0889-.6053-4.015-1.3711-.9262-3.1044-.3933-3.9892.9106l-1.2935 1.9144zm-.4242 20.6284 3.3889-8.3509-2.5404-1.0348-2.2559 5.5621-4.3203-1.754 2.0644-5.0861-2.4783-1.0037-2.0645 5.0861-3.8701-1.5729 2.2558-5.5621-2.5456-1.0297-3.389 8.3561zm-7.8392 11.6678-11.2224-6.6072.5381-3.1872 15.6514 9.4012-.4036 2.3697-17.8814 3.7458.5432-3.2077zm-13.3084 17.0273 17.0019-.284-.0466-3.012-17.0071.285zm17.1557 6.147.4553 2.09-9.1322 11.921 11.2018-2.452.6468 2.944-16.6139 3.637-.4501-2.064 9.127-11.947-11.2018 2.452-.6467-2.944zm9.0607 26.641c-2.0593-3.911-6.1933-5.194-9.9134-3.234l-8.9408 4.709 1.4022 2.664 9.0287-4.754c2.3024-1.211 4.7549-.254 5.9087 1.94 1.159 2.194.5692 4.781-1.7281 5.991l-9.0287 4.755 1.4022 2.665 8.9407-4.708c3.7201-1.961 5.0033-6.096 2.9285-10.028zm12.5479 18.202 6.6641 6.069-11.4501 12.578-6.6642-6.069 1.8472-2.028 4.4393 4.041 2.8147-3.089-4.0617-3.694 1.8006-1.977 4.0616 3.7 3.1407-3.451-4.4394-4.041zm15.0249 14.555c1.3194.786 2.1887 2.127 2.6647 4.077l2.4421-.838c-.626-2.603-1.7436-4.289-3.7667-5.495-3.4252-2.038-6.5503-1.019-7.968 1.361-1.9237 3.228.1228 5.388 1.8707 7.232 1.3031 1.376 2.4402 2.576 1.6425 3.913-.7089 1.19-2.0179 1.34-3.4356.497-1.4591-.87-1.9765-1.998-2.499-3.922l-2.4836.895c.7244 2.385 1.516 3.901 3.6684 5.184 2.9854 1.78 5.8467 1.107 7.2385-1.231 1.9757-3.315-.0993-5.468-1.8523-7.286-1.2815-1.33-2.3908-2.481-1.6195-3.776.7347-1.232 2.3852-1.63 4.0978-.611zm19.4855 16.666-1.9662 6.488 2.882.874 4.936-16.272-2.8819-.874-2.1524 7.093-8.4389-2.561 2.1524-7.093-2.8819-.875-4.936 16.272 2.8819.875 1.9661-6.488zm43.2873-162.341c-1.47-.4191-2.66-1.485-3.622-3.2493l-2.147 1.4228c1.273 2.3594 2.789 3.6995 5.055 4.3411 3.834 1.0917 6.591-.7037 7.347-3.3683 1.026-3.6166-1.509-5.1747-3.673-6.5056-1.614-.9921-3.022-1.858-2.598-3.3561.378-1.3298 1.604-1.8161 3.192-1.366 1.635.4657 2.422 1.4229 3.426 3.1458l2.167-1.5056c-1.319-2.1162-2.478-3.3787-4.884-4.0616-3.342-.9469-5.929.4398-6.674 3.0578-1.052 3.7121 1.509 5.2575 3.673 6.5629 1.582.9544 2.952 1.7806 2.541 3.2316-.394 1.3814-1.889 2.1938-3.803 1.6505zm27.784-.7348-4.594-2.4887-6.768 12.5005-2.649-1.4332 6.767-12.5005-4.594-2.4887 1.33-2.4577 11.838 6.4055zm-.565 15.4294c.553-.7347.403-1.8264-.352-2.3956-.756-.5743-1.827-.4087-2.38.326-.575.7606-.424 1.8161.331 2.3852.755.5743 1.832.4398 2.401-.3156zm19.95-2.6029c2.189 2.3128 2.111 5.8001-.165 7.9525-2.293 2.1731-5.847 1.9868-7.968-.2536l-1.754-1.8523-4.217 3.9944-2.07-2.1886 12.35-11.6933zm-7.859 3.9271 1.521 1.6039c1.138 1.2004 2.939 1.3349 4.103.2329 1.164-1.1021 1.112-2.8923-.026-4.0927l-1.521-1.604zm2.574 16.3088 4.775 7.6472 2.329-1.4487-3.177-5.0913 3.958-2.4732 2.908 4.6566 2.266-1.4176-2.908-4.6567 3.544-2.2145 3.177 5.0913 2.329-1.4539-4.776-7.6472zm24.843 19.1544-1.806-4.8998-13.339 4.9205-1.04-2.825 13.334-4.9205-1.806-4.8998 2.623-.9676 4.657 12.6298zm-12.313 10.0274 1.315 8.9146 2.716-.403-.875-5.935 4.616-.6829.802 5.4329 2.644-.388-.802-5.433 4.134-.6105.874 5.9345 2.716-.398-1.314-8.9152zm18.254 21.0836c-.191 3.13-2.794 5.526-5.95 5.335-2.427-.15-4.336-1.899-4.827-4.217-.212.511-.889.939-1.618 1.4-1.036.655-2.178 1.378-2.247 2.501-.016.243-.006.486.077.761l-2.814-.171c-.109-.564-.15-1.082-.125-1.542.158-2.608 2.662-3.774 4.514-4.637 1.005-.468 1.819-.847 1.959-1.318l.083-1.382-5.867-.357.186-3.006 16.976 1.04zm-8.154-3.104-.14 2.302c-.098 1.578.911 3.048 2.556 3.151 1.651.098 2.877-1.236 2.97-2.809l.14-2.303zm-9.526 19.516c.419-1.474 1.495-2.659 3.259-3.617l-1.438-2.147c-2.359 1.268-3.705 2.779-4.351 5.045-1.097 3.829.688 6.592 3.353 7.352 3.613 1.035 5.179-1.496 6.515-3.657.997-1.611 1.866-3.016 3.362-2.588 1.335.378 1.816 1.604 1.361 3.193-.466 1.635-1.423 2.421-3.151 3.42l1.5 2.173c2.121-1.314 3.389-2.468 4.077-4.874.957-3.343-.424-5.935-3.037-6.685-3.713-1.061-5.265 1.498-6.575 3.658-.958 1.579-1.787 2.945-3.235 2.53-1.381-.393-2.189-1.888-1.64-3.803zm6.272 23.34c-1.232 2.287-3.783 3.12-5.837 2.018-1.562-.843-2.401-2.453-2.219-4.124-1.646 1.873-3.809 1.946-5.5 1.035-2.287-1.231-2.981-4.093-1.635-6.592l2.928-5.432 14.969 8.071zm-11.44-9.236-1.04 1.925c-.787 1.454-.647 3.048.76 3.808 1.284.694 2.825.031 3.622-1.443l1.04-1.925zm6.519 3.519-.993 1.842c-.647 1.195-.259 2.426.915 3.063 1.263.678 2.474.119 3.188-1.206l.843-1.562zm-20.884 12.231c-2.975 3.276-2.763 7.596.352 10.421l7.492 6.783 2.023-2.23-7.559-6.856c-1.925-1.743-1.868-4.377-.202-6.214 1.666-1.836 4.299-2.173 6.224-.424l7.559 6.856 2.023-2.23-7.486-6.789c-3.115-2.819-7.441-2.613-10.426.683zm-4.789 26.874c-2.608 1.738-6.09 1.112-7.844-1.516-1.345-2.023-1.112-4.6.44-6.395-.534.139-1.282-.141-2.09-.444-1.147-.429-2.414-.903-3.353-.281-.202.135-.393.29-.559.518l-1.562-2.344c.383-.429.765-.776 1.154-1.03 2.176-1.449 4.621-.158 6.426.795.98.518 1.771.936 2.23.763l1.153-.766-3.259-4.895 2.504-1.671 9.427 14.151zm-2.457-8.377-1.92 1.278c-1.314.874-1.878 2.566-.962 3.943.915 1.376 2.721 1.542 4.035.667l1.92-1.278zm-20.357 16.806c-1.992.704-3.953.341-5.402-.771l-1.702 2.406c2.276 1.619 5.267 2.132 8.082 1.138 4.625-1.635 7.036-6.69 5.401-11.315-1.635-4.631-6.69-7.042-11.315-5.407-2.815.998-4.833 3.311-5.583 5.997l1.873 5.293 7.306-2.582-.802-2.267-4.466 1.579-.714-2.018c.544-1.454 1.718-2.644 3.369-3.229 3.208-1.133 6.348.538 7.45 3.653s-.289 6.39-3.497 7.523zm-23.398-176.8228c1.433 1.5936 1.304 4.0461-.29 5.4844-1.593 1.4281-4.041 1.3039-5.474-.2949-1.433-1.5936-1.304-4.0461.285-5.4793.465-.4139.998-.6985 1.557-.8537 1.376-.3829 2.908.0103 3.922 1.1435zm-5.379 173.8958c-.009-.001-.018-.002-.026-.002-2.038-.253-3.901 1.118-4.289 3.1-.015.083-.031.176-.041.264-.264 2.126 1.241 4.066 3.368 4.335.015 0 .029.002.043.005.009.002.019.004.029.006l.125.015c2.131.264 4.061-1.252 4.325-3.378.264-2.127-1.252-4.067-3.379-4.326-.031-.005-.062-.01-.093-.01-.021-.004-.043-.007-.062-.009z" fill-rule="evenodd"/></g></svg>