<svg width="393" height="70" fill="none" xmlns="http://www.w3.org/2000/svg"><path d="M69.48 35.084C69.525 15.834 54 .13 34.875.084 15.751.038.15 15.666.105 34.916c-.023 9.351 3.623 17.857 9.577 24.155-.42.842-.998 1.442-1.742 1.82-2.213 1.122-5.227.071-5.248.06a1.956 1.956 0 00-2.285.722 2.005 2.005 0 00.078 2.415c.21.253 2.13 2.546 6.023 4.126 1.873.763 4.427 1.423 7.621 1.43 2.65.007 5.751-.439 9.284-1.663a34.389 34.389 0 0011.306 1.935c19.114.046 34.715-15.582 34.76-34.832zm-4.273-4.49a81.507 81.507 0 00-6.2-4.444c-7.634-4.941-13.913-6.991-18.66-6.086-2.253.427-4.12 1.487-5.58 3.17-1.723-1.764-4.067-2.813-6.528-2.82a8.989 8.989 0 00-4.527 1.223c.952-4.14 2.762-7.963 5.431-11.436 2.595-3.378 5.281-5.406 6.31-6.12 15.164.321 27.652 11.758 29.754 26.512zM33.923 65.918c-15.018-.427-27.36-11.726-29.525-26.333A49.215 49.215 0 009.929 43.3c5.063 2.922 13.025 6.283 22.912 6.307.66.002 1.33-.007 2-.037h.032c.041 0 .083-.01.125-.01.021 0 .042 0 .063-.01.042-.011.095-.022.136-.032.01 0 .032-.01.042-.01.053-.011.116-.032.168-.053.021-.01.042-.02.073-.031a.359.359 0 00.095-.042c.02-.01.052-.021.073-.042.032-.01.063-.032.084-.042.021-.01.053-.032.074-.042.03-.021.052-.032.083-.053.021-.02.042-.031.074-.052l.031-.032c4.156-3.385 6.874-5.687 9.31-8.137.325-.316.63-.642.913-.957a48.609 48.609 0 01-5.696 16.854c-2.65 4.8-5.454 7.883-6.599 9.04zM22.936 30.09v-.031c0-.064.011-.127 0-.19l.001-.042c0-.064-.01-.137-.01-.2.007-2.837 2.421-5.234 5.28-5.227 2.284.005 4.05 1.601 4.8 3.184.01.021.021.032.031.053.021.053.053.095.084.148.01.021.031.053.042.074.041.063.094.127.146.18.01.02.031.031.042.052.041.043.083.085.136.127.02.021.041.032.052.053.063.053.125.095.188.137.01.011.02.011.031.022l.157.095c.01.01.021.01.042.021.021.01.052.021.073.032.063.021.115.042.178.064.021.01.042.01.053.02.083.022.167.043.24.054h.032c.073.01.146.011.23.022h.032a1.45 1.45 0 00.272-.02c.01 0 .02 0 .031-.011.074-.01.136-.031.21-.042.02-.01.042-.01.063-.02.073-.022.157-.053.23-.084 0 0 .01 0 .01-.01.074-.032.137-.074.21-.116.021-.01.032-.021.053-.032a2.4 2.4 0 00.2-.147c.062-.053.125-.116.178-.179.01-.01.02-.02.031-.042.042-.052.095-.105.126-.168.01-.01.021-.032.032-.042a1.93 1.93 0 00.116-.2c.063-.127.126-.253.189-.369.83-1.463 2.52-2.83 4.636-2.825 2.86.007 5.262 2.417 5.256 5.253 0 .063 0 .137-.011.2v.063a72.62 72.62 0 01-.001.243c.01.516-.083 4.016-4.125 7.991-2.078 2.093-4.408 4.09-7.766 6.855-3.345-2.77-5.665-4.79-7.734-6.892l-.01-.01c-4.086-4.09-4.067-7.654-4.056-8.044zm5.737-25.404c-.829.852-1.69 1.82-2.552 2.936-3.424 4.398-7.432 11.82-7.132 22.163v.095c-.045.95.038 5.904 5.241 11.072 1.452 1.469 3 2.885 4.88 4.503-7.245-.703-13.136-3.258-17.09-5.523-4.078-2.34-6.838-4.772-7.945-5.818.411-14.569 10.861-26.625 24.598-29.428zM8.81 64.836c.293-.105.597-.231.88-.378a7.666 7.666 0 002.95-2.608 34.356 34.356 0 005.05 3.513c-3.72.634-6.662.226-8.88-.528zm30.696.738a49.894 49.894 0 004.393-6.558c3.45-6.116 7.412-16.111 6.71-29.06v-.273a8.886 8.886 0 00-1.006-4.125c6.11 2.608 12.602 7.558 15.884 10.412-.444 15.012-11.575 27.361-25.981 29.604zM80.124 2.772l17.146.042 18.13 44.225 18.341-44.137 17.146.042-26.962 64.258-17.146-.041L80.124 2.772zm77.101.003l19.905.048 18.474 42.676 18.723-42.586 19.81.048-.153 64.323-15.724-.038.09-37.843-16.005 37.804-13.729-.033-15.825-37.412-.089 37.374-15.725-.038.153-64.324h.095zm87.317.001l14.569.036-.153 64.324-14.569-.035.153-64.325zm27.056.001l29.91.072c14.838.036 27.778 11.297 27.743 26.004-.022 8.88-4.72 16.34-11.565 21.116l12.035 17.273-19.004-.046-8.63-12.426-15.119-.036-.029 12.404-15.494-.037.153-64.324zm29.589 36.768c7.209.017 12.51-5.044 12.523-10.73.014-5.591-5.732-10.68-12.94-10.697l-13.762-.033-.05 21.425 14.229.035zM340.28 2.778l52.032.126-.036 15.27-36.627-.088-.022 9.115 26.156.063-.036 15.083-26.156-.064-.022 9.492 36.627.088-.037 15.365-52.032-.126.153-64.324z" fill="#291F2F"/></svg>